HIERARCHY
ROOT Hips
{
	OFFSET 0.000000 0.000000 0.000000
	CHANNELS 6 Xposition Yposition Zposition Xrotation Yrotation Zrotation
	JOINT LeftUpLeg_virtual
	{
		OFFSET 0.000000 0.000000 0.000000
		CHANNELS 3 Xrotation Yrotation Zrotation
		JOINT LeftUpLeg
		{
			OFFSET 11.394100 -6.187798 -0.413800
			CHANNELS 3 Xrotation Yrotation Zrotation
			JOINT LeftLeg
			{
				OFFSET 0.430247 -32.302673 3.732800
				CHANNELS 3 Xrotation Yrotation Zrotation
				JOINT LeftFoot
				{
					OFFSET -0.430247 -48.264931 -6.423300
					CHANNELS 3 Xrotation Yrotation Zrotation
					JOINT LeftToeBase
					{
						OFFSET 4.230900 -16.068199 23.438400
						CHANNELS 3 Xrotation Yrotation Zrotation
						JOINT LeftToe_End
						{
							OFFSET 4.510700 0.695400 19.974600
							CHANNELS 3 Xrotation Yrotation Zrotation
							End Site
							{
								OFFSET 0 0 0
							}
						}
					}
				}
			}
		}
	}
	JOINT RightUpLeg_virtual
	{
		OFFSET 0.000000 0.000000 0.000000
		CHANNELS 3 Xrotation Yrotation Zrotation
		JOINT RightUpLeg
		{
			OFFSET -11.333700 -6.187798 -0.413800
			CHANNELS 3 Xrotation Yrotation Zrotation
			JOINT RightLeg
			{
				OFFSET -0.430392 -32.302628 3.733000
				CHANNELS 3 Xrotation Yrotation Zrotation
				JOINT RightFoot
				{
					OFFSET 0.430392 -48.264973 -6.423500
					CHANNELS 3 Xrotation Yrotation Zrotation
					JOINT RightToeBase
					{
						OFFSET -4.230900 -16.068199 23.438400
						CHANNELS 3 Xrotation Yrotation Zrotation
						JOINT RightToe_End
						{
							OFFSET -4.510700 0.695400 19.974600
							CHANNELS 3 Xrotation Yrotation Zrotation
							End Site
							{
								OFFSET 0 0 0
							}
						}
					}
				}
			}
		}
	}
	JOINT Spine_virtual
	{
		OFFSET 0.000000 0.000000 0.000000
		CHANNELS 3 Xrotation Yrotation Zrotation
		JOINT Spine
		{
			OFFSET -0.002400 12.777504 0.315300
			CHANNELS 3 Xrotation Yrotation Zrotation
			JOINT Spine1
			{
				OFFSET -0.002067 5.816869 0.032633
				CHANNELS 3 Xrotation Yrotation Zrotation
				JOINT Spine1_split
				{
					OFFSET -0.002067 5.816869 0.032633
					CHANNELS 3 Xrotation Yrotation Zrotation
					JOINT Spine2
					{
						OFFSET -0.002067 5.816869 0.032633
						CHANNELS 3 Xrotation Yrotation Zrotation
						JOINT Neck_virtual
						{
							OFFSET 0.000000 0.000000 0.000000
							CHANNELS 3 Xrotation Yrotation Zrotation
							JOINT Neck
							{
								OFFSET -0.003700 21.199493 -0.826900
								CHANNELS 3 Xrotation Yrotation Zrotation
								JOINT Head
								{
									OFFSET 0.000000 20.442200 4.834800
									CHANNELS 3 Xrotation Yrotation Zrotation
									JOINT HeadTop_End
									{
										OFFSET 0.000000 34.668396 4.968400
										CHANNELS 3 Xrotation Yrotation Zrotation
										End Site
										{
											OFFSET 0 0 0
										}
									}
								}
							}
						}
						JOINT LeftShoulder_virtual
						{
							OFFSET 0.000000 0.000000 0.000000
							CHANNELS 3 Xrotation Yrotation Zrotation
							JOINT LeftShoulder
							{
								OFFSET 3.288150 8.794197 -1.372250
								CHANNELS 3 Xrotation Yrotation Zrotation
								JOINT LeftShoulder_split
								{
									OFFSET 3.288150 8.794197 -1.372250
									CHANNELS 3 Xrotation Yrotation Zrotation
									JOINT LeftArm
									{
										OFFSET 11.953299 -2.279007 -0.146200
										CHANNELS 3 Xrotation Yrotation Zrotation
										JOINT LeftForeArm
										{
											OFFSET 18.448900 0.000000 0.000000
											CHANNELS 3 Xrotation Yrotation Zrotation
											JOINT LeftHand
											{
												OFFSET 29.527798 0.000000 0.000000
												CHANNELS 3 Xrotation Yrotation Zrotation
												End Site
												{
													OFFSET 0 0 0
												}
											}
										}
									}
								}
							}
						}
						JOINT RightShoulder_virtual
						{
							OFFSET 0.000000 0.000000 0.000000
							CHANNELS 3 Xrotation Yrotation Zrotation
							JOINT RightShoulder
							{
								OFFSET -3.249400 8.794197 -1.372250
								CHANNELS 3 Xrotation Yrotation Zrotation
								JOINT RightShoulder_split
								{
									OFFSET -3.249400 8.794197 -1.372250
									CHANNELS 3 Xrotation Yrotation Zrotation
									JOINT RightArm
									{
										OFFSET -11.953299 -2.279007 -0.146200
										CHANNELS 3 Xrotation Yrotation Zrotation
										JOINT RightForeArm
										{
											OFFSET -18.448900 0.000000 0.000000
											CHANNELS 3 Xrotation Yrotation Zrotation
											JOINT RightHand
											{
												OFFSET -29.527802 0.000000 0.000000
												CHANNELS 3 Xrotation Yrotation Zrotation
												End Site
												{
													OFFSET 0 0 0
												}
											}
										}
									}
								}
							}
						}
					}
				}
			}
		}
	}
}
MOTION
Frames: 4
Frame Time: 0.03333333
6.433671 88.899811 -12.842047 0.000000 0.000000 0.000000 48.681504 6.702886 -7.048474 -101.877988 2.655482 18.936930 42.396313 10.849937 -2.383227 4.435763 14.031991 -4.522045 -3.709570 1.121292 0.939905 0.000000 0.000000 0.000000 50.394198 4.719712 -5.361592 -46.757303 6.412601 -10.015427 62.126765 2.520591 -2.742190 5.084330 -0.627868 8.515520 -11.778138 0.864565 6.035136 0.000000 0.000000 0.000000 52.388524 0.314324 -2.050729 11.805480 1.069400 -2.269229 12.127839 1.574227 -0.819140 -0.028189 1.573220 1.179789 0.000000 0.000000 0.000000 26.657556 1.302432 -0.898843 -23.646969 -2.613549 4.670595 -18.611880 3.942933 -7.143479 0.000000 0.000000 0.000000 25.703183 2.068063 -0.488673 3.593458 -6.276784 7.115964 8.379129 -11.859287 -5.684963 -23.082932 -48.115418 -28.272434 4.872064 -48.013791 4.907169 0.000000 0.000000 0.000000 24.680308 1.174485 -0.348105 -3.644031 33.130960 14.560662 8.310687 8.989984 0.617692 -52.277544 24.328685 23.703769 -0.214018 32.930801 -0.045154 0.000000 0.000000 0.000000 
6.227738 90.541946 -11.454721 0.000000 0.000000 0.000000 44.891251 4.731642 -5.738024 -94.640535 3.701454 17.945128 39.563341 10.742640 -2.193785 4.572423 14.960652 -5.543110 -3.338884 1.193721 0.634185 0.000000 0.000000 0.000000 46.356357 2.904965 -4.110589 -51.381713 7.700732 -9.352997 66.528843 2.438357 -2.607342 1.708253 -0.666477 7.414459 -7.300846 1.488140 2.175898 0.000000 0.000000 0.000000 48.308876 -1.042481 -1.711732 12.241572 1.063073 -2.339583 12.183088 1.561528 -0.620681 -0.033043 1.367017 1.189492 0.000000 0.000000 0.000000 26.561962 1.272408 -0.678645 -23.300813 -2.439569 4.648097 -17.715405 4.767769 -6.628760 0.000000 0.000000 0.000000 25.442781 2.024104 -0.294603 3.507779 -5.787419 5.782856 7.497529 -12.142020 -5.084576 -22.357149 -46.951759 -30.457740 4.482502 -47.558744 4.399396 0.000000 0.000000 0.000000 24.453440 1.142476 -0.209459 -4.017202 32.348975 15.702919 8.961033 8.630749 1.389651 -50.524596 23.659767 26.267736 -0.092123 31.833931 -0.444453 0.000000 0.000000 0.000000 
5.967425 91.902199 -10.097952 0.000000 0.000000 0.000000 41.167316 2.726045 -4.455026 -87.597627 4.412335 16.894680 37.103275 10.562422 -1.937782 4.513237 15.330093 -6.484433 -3.336043 1.212058 0.473953 0.000000 0.000000 0.000000 42.412227 0.918437 -2.779442 -54.867596 9.029624 -8.760453 67.842978 2.490910 -2.626936 0.094627 -0.212431 6.873353 -6.162341 1.432536 0.152485 0.000000 0.000000 0.000000 44.389932 -2.421633 -1.295006 12.495359 0.988645 -2.446965 12.221096 1.587439 -0.409735 -0.076275 1.106651 1.285515 0.000000 0.000000 0.000000 26.415214 1.292157 -0.483604 -22.827298 -2.269499 4.534384 -16.859357 5.506931 -6.195777 0.000000 0.000000 0.000000 25.142362 2.034413 -0.087957 3.378212 -5.344452 4.327006 6.530755 -12.094477 -4.751055 -21.761329 -45.673202 -32.822658 3.880126 -46.206028 3.702377 0.000000 0.000000 0.000000 24.179645 1.164308 -0.070765 -4.192672 31.419779 16.446775 9.431118 8.250812 2.039354 -48.809409 22.673265 28.585366 -0.051466 30.756840 -0.869316 0.000000 0.000000 0.000000 
5.623689 93.007523 -8.744635 0.000000 0.000000 0.000000 37.664685 0.831578 -3.420014 -80.919963 4.901748 16.088027 34.994628 10.375646 -1.676827 4.295771 15.293159 -7.095103 -3.143859 1.181362 0.428836 0.000000 0.000000 0.000000 38.637243 -1.040469 -1.644802 -56.954608 10.156263 -8.357853 65.859730 2.428059 -2.609212 -0.385446 0.324416 6.224438 -6.339592 0.999268 -0.051187 0.000000 0.000000 0.000000 40.750978 -3.798063 -0.893671 12.560428 0.876929 -2.554366 12.229480 1.649577 -0.174933 -0.114983 0.922542 1.400155 0.000000 0.000000 0.000000 26.210472 1.350091 -0.292998 -22.254186 -2.122195 4.367348 -16.012965 6.140226 -5.869330 0.000000 0.000000 0.000000 24.794087 2.082572 0.139980 3.230058 -4.995089 2.891127 5.782259 -11.810233 -4.627198 -21.205343 -44.392473 -35.218614 3.257164 -44.304326 2.977767 0.000000 0.000000 0.000000 23.857646 1.231272 0.090737 -4.174849 30.379039 16.813434 9.592658 7.790613 2.671093 -46.977000 21.383521 30.519020 -0.100290 29.878048 -1.291576 0.000000 0.000000 0.000000 
